<svg width="14" height="14" fill="none" xmlns="http://www.w3.org/2000/svg"><g clip-path="url(#a)"><path d="M.841 9.316a1 1 0 0 0 .174.013h9.877l-.216.1c-.21.1-.402.235-.566.4L7.34 12.6a1.037 1.037 0 0 0-.145 1.328 1.002 1.002 0 0 0 1.503.13l5.008-5.009a1.002 1.002 0 0 0 .001-1.416V7.63l-5.01-5.008a1.002 1.002 0 0 0-1.502.1c-.28.419-.22.979.145 1.327l2.765 2.775c.147.147.316.27.501.365l.3.135H1.07a1.037 1.037 0 0 0-1.057.842c-.088.546.282 1.06.828 1.149Z" fill="#DC7000"/></g><defs><clipPath id="a"><path fill="#fff" transform="rotate(-180 7 7)" d="M0 0h14v14H0z"/></clipPath></defs></svg>